<mxfile host="app.diagrams.net" modified="2023-11-29T13:32:36.816Z" agent="Mozilla/5.0 (X11; Linux x86_64; rv:109.0) Gecko/20100101 Firefox/118.0" etag="2FuOrc9nyKmaHZq_Hnzc" version="22.1.4" type="device">
  <diagram name="Page-1" id="2YBvvXClWsGukQMizWep">
    <mxGraphModel dx="530" dy="284" grid="1" gridSize="10" guides="1" tooltips="1" connect="1" arrows="1" fold="1" page="1" pageScale="1" pageWidth="850" pageHeight="1100" math="0" shadow="0">
      <root>
        <mxCell id="0" />
        <mxCell id="1" parent="0" />
        <mxCell id="Xmo3_Crtta4L2Li_5l8g-21" value="" style="curved=1;endArrow=classic;html=1;rounded=0;exitX=1;exitY=0.5;exitDx=0;exitDy=0;entryX=0;entryY=0.5;entryDx=0;entryDy=0;" parent="1" source="Xmo3_Crtta4L2Li_5l8g-20" target="Xmo3_Crtta4L2Li_5l8g-16" edge="1">
          <mxGeometry width="50" height="50" relative="1" as="geometry">
            <mxPoint x="440" y="249" as="sourcePoint" />
            <mxPoint x="490" y="199" as="targetPoint" />
            <Array as="points">
              <mxPoint x="500" y="210" />
            </Array>
          </mxGeometry>
        </mxCell>
        <mxCell id="Xmo3_Crtta4L2Li_5l8g-37" value="" style="endArrow=none;html=1;rounded=0;" parent="1" edge="1">
          <mxGeometry width="50" height="50" relative="1" as="geometry">
            <mxPoint x="380" y="199" as="sourcePoint" />
            <mxPoint x="380" y="160" as="targetPoint" />
          </mxGeometry>
        </mxCell>
        <mxCell id="Xmo3_Crtta4L2Li_5l8g-38" value="" style="endArrow=none;html=1;rounded=0;" parent="1" edge="1">
          <mxGeometry width="50" height="50" relative="1" as="geometry">
            <mxPoint x="380" y="249.5" as="sourcePoint" />
            <mxPoint x="380" y="239.5" as="targetPoint" />
            <Array as="points">
              <mxPoint x="380" y="289.5" />
            </Array>
          </mxGeometry>
        </mxCell>
        <mxCell id="Xmo3_Crtta4L2Li_5l8g-40" value="" style="endArrow=none;html=1;rounded=0;" parent="1" edge="1">
          <mxGeometry width="50" height="50" relative="1" as="geometry">
            <mxPoint x="634.83" y="257.5" as="sourcePoint" />
            <mxPoint x="634.83" y="160" as="targetPoint" />
          </mxGeometry>
        </mxCell>
        <mxCell id="Xmo3_Crtta4L2Li_5l8g-48" value="" style="endArrow=none;html=1;rounded=0;" parent="1" edge="1">
          <mxGeometry width="50" height="50" relative="1" as="geometry">
            <mxPoint x="379.51" y="275" as="sourcePoint" />
            <mxPoint x="379.51" y="275" as="targetPoint" />
          </mxGeometry>
        </mxCell>
        <mxCell id="Xmo3_Crtta4L2Li_5l8g-67" value="" style="group" parent="1" vertex="1" connectable="0">
          <mxGeometry x="510" y="157" width="60" height="115" as="geometry" />
        </mxCell>
        <mxCell id="Xmo3_Crtta4L2Li_5l8g-41" value="" style="group" parent="Xmo3_Crtta4L2Li_5l8g-67" vertex="1" connectable="0">
          <mxGeometry y="25" width="60" height="90" as="geometry" />
        </mxCell>
        <mxCell id="Xmo3_Crtta4L2Li_5l8g-14" value="&lt;font face=&quot;Lucida Console&quot;&gt;callback1&lt;/font&gt;" style="ellipse;whiteSpace=wrap;html=1;" parent="Xmo3_Crtta4L2Li_5l8g-41" vertex="1">
          <mxGeometry width="60" height="20" as="geometry" />
        </mxCell>
        <mxCell id="Xmo3_Crtta4L2Li_5l8g-15" value="callback2" style="ellipse;whiteSpace=wrap;html=1;" parent="Xmo3_Crtta4L2Li_5l8g-41" vertex="1">
          <mxGeometry y="30" width="60" height="20" as="geometry" />
        </mxCell>
        <mxCell id="Xmo3_Crtta4L2Li_5l8g-16" value="&lt;strike&gt;callback3&lt;/strike&gt;" style="ellipse;whiteSpace=wrap;html=1;" parent="Xmo3_Crtta4L2Li_5l8g-41" vertex="1">
          <mxGeometry y="60" width="60" height="20" as="geometry" />
        </mxCell>
        <mxCell id="Xmo3_Crtta4L2Li_5l8g-17" value="" style="endArrow=none;html=1;rounded=0;entryX=0.5;entryY=1;entryDx=0;entryDy=0;exitX=0.5;exitY=0;exitDx=0;exitDy=0;" parent="Xmo3_Crtta4L2Li_5l8g-41" source="Xmo3_Crtta4L2Li_5l8g-15" target="Xmo3_Crtta4L2Li_5l8g-14" edge="1">
          <mxGeometry width="50" height="50" relative="1" as="geometry">
            <mxPoint x="-216" y="50" as="sourcePoint" />
            <mxPoint x="-156" as="targetPoint" />
          </mxGeometry>
        </mxCell>
        <mxCell id="Xmo3_Crtta4L2Li_5l8g-18" value="" style="endArrow=none;html=1;rounded=0;entryX=0.5;entryY=1;entryDx=0;entryDy=0;exitX=0.5;exitY=0;exitDx=0;exitDy=0;" parent="Xmo3_Crtta4L2Li_5l8g-41" source="Xmo3_Crtta4L2Li_5l8g-16" target="Xmo3_Crtta4L2Li_5l8g-15" edge="1">
          <mxGeometry width="50" height="50" relative="1" as="geometry">
            <mxPoint x="42" y="40" as="sourcePoint" />
            <mxPoint x="42" y="30" as="targetPoint" />
          </mxGeometry>
        </mxCell>
        <mxCell id="Xmo3_Crtta4L2Li_5l8g-19" value="" style="endArrow=none;html=1;rounded=0;entryX=0.5;entryY=1;entryDx=0;entryDy=0;" parent="Xmo3_Crtta4L2Li_5l8g-41" target="Xmo3_Crtta4L2Li_5l8g-16" edge="1">
          <mxGeometry width="50" height="50" relative="1" as="geometry">
            <mxPoint x="30" y="90" as="sourcePoint" />
            <mxPoint x="42" y="60" as="targetPoint" />
          </mxGeometry>
        </mxCell>
        <mxCell id="Xmo3_Crtta4L2Li_5l8g-42" value="CQS" style="rounded=0;whiteSpace=wrap;html=1;" parent="Xmo3_Crtta4L2Li_5l8g-67" vertex="1">
          <mxGeometry width="60" height="20" as="geometry" />
        </mxCell>
        <mxCell id="Xmo3_Crtta4L2Li_5l8g-54" value="" style="html=1;points=[];perimeter=orthogonalPerimeter;outlineConnect=0;targetShapes=umlLifeline;portConstraint=eastwest;newEdgeStyle={&quot;edgeStyle&quot;:&quot;elbowEdgeStyle&quot;,&quot;elbow&quot;:&quot;vertical&quot;,&quot;curved&quot;:0,&quot;rounded&quot;:0};" parent="1" vertex="1">
          <mxGeometry x="630" y="232" width="10" height="35" as="geometry" />
        </mxCell>
        <mxCell id="u00EMY2Q6EPRI4YONWDw-3" value="&lt;font face=&quot;Lucida Console&quot;&gt;resume_all&lt;/font&gt;" style="rounded=1;whiteSpace=wrap;html=1;" vertex="1" parent="1">
          <mxGeometry x="634" y="239.5" width="110" height="20" as="geometry" />
        </mxCell>
        <mxCell id="u00EMY2Q6EPRI4YONWDw-4" value="âˆ…" style="ellipse;whiteSpace=wrap;html=1;" vertex="1" parent="1">
          <mxGeometry x="510" y="270" width="60" height="20" as="geometry" />
        </mxCell>
        <mxCell id="u00EMY2Q6EPRI4YONWDw-5" value="" style="curved=1;endArrow=classic;html=1;rounded=0;exitX=0;exitY=0.5;exitDx=0;exitDy=0;entryX=1;entryY=0.5;entryDx=0;entryDy=0;" edge="1" parent="1" source="u00EMY2Q6EPRI4YONWDw-3" target="Xmo3_Crtta4L2Li_5l8g-14">
          <mxGeometry width="50" height="50" relative="1" as="geometry">
            <mxPoint x="473" y="219" as="sourcePoint" />
            <mxPoint x="520" y="262" as="targetPoint" />
            <Array as="points">
              <mxPoint x="620" y="180" />
            </Array>
          </mxGeometry>
        </mxCell>
        <mxCell id="u00EMY2Q6EPRI4YONWDw-6" value="" style="curved=1;endArrow=classic;html=1;rounded=0;exitX=0;exitY=0.5;exitDx=0;exitDy=0;entryX=1;entryY=0.5;entryDx=0;entryDy=0;" edge="1" parent="1" source="u00EMY2Q6EPRI4YONWDw-3" target="Xmo3_Crtta4L2Li_5l8g-15">
          <mxGeometry width="50" height="50" relative="1" as="geometry">
            <mxPoint x="644" y="285" as="sourcePoint" />
            <mxPoint x="580" y="202" as="targetPoint" />
            <Array as="points">
              <mxPoint x="610" y="190" />
            </Array>
          </mxGeometry>
        </mxCell>
        <mxCell id="u00EMY2Q6EPRI4YONWDw-8" value="" style="html=1;points=[];perimeter=orthogonalPerimeter;outlineConnect=0;targetShapes=umlLifeline;portConstraint=eastwest;newEdgeStyle={&quot;edgeStyle&quot;:&quot;elbowEdgeStyle&quot;,&quot;elbow&quot;:&quot;vertical&quot;,&quot;curved&quot;:0,&quot;rounded&quot;:0};" vertex="1" parent="1">
          <mxGeometry x="375" y="169" width="10" height="71" as="geometry" />
        </mxCell>
        <mxCell id="Xmo3_Crtta4L2Li_5l8g-20" value="&lt;font face=&quot;Lucida Console&quot;&gt;suspend callback3&lt;br&gt;&lt;/font&gt;" style="rounded=1;whiteSpace=wrap;html=1;" parent="1" vertex="1">
          <mxGeometry x="380" y="179" width="110" height="20" as="geometry" />
        </mxCell>
        <mxCell id="u00EMY2Q6EPRI4YONWDw-13" value="&lt;font face=&quot;Lucida Console&quot;&gt;cancel callback3&lt;br&gt;&lt;/font&gt;" style="rounded=1;whiteSpace=wrap;html=1;" vertex="1" parent="1">
          <mxGeometry x="380" y="212" width="110" height="20" as="geometry" />
        </mxCell>
        <mxCell id="u00EMY2Q6EPRI4YONWDw-14" value="" style="curved=1;endArrow=classic;html=1;rounded=0;exitX=1;exitY=0.5;exitDx=0;exitDy=0;entryX=0;entryY=0.5;entryDx=0;entryDy=0;" edge="1" parent="1" source="u00EMY2Q6EPRI4YONWDw-13" target="Xmo3_Crtta4L2Li_5l8g-16">
          <mxGeometry width="50" height="50" relative="1" as="geometry">
            <mxPoint x="500" y="199" as="sourcePoint" />
            <mxPoint x="520" y="262" as="targetPoint" />
            <Array as="points">
              <mxPoint x="490" y="260" />
            </Array>
          </mxGeometry>
        </mxCell>
        <mxCell id="u00EMY2Q6EPRI4YONWDw-15" value="" style="endArrow=none;html=1;rounded=0;" edge="1" parent="1">
          <mxGeometry width="50" height="50" relative="1" as="geometry">
            <mxPoint x="634.76" y="277" as="sourcePoint" />
            <mxPoint x="634.76" y="267" as="targetPoint" />
            <Array as="points">
              <mxPoint x="635" y="290" />
            </Array>
          </mxGeometry>
        </mxCell>
      </root>
    </mxGraphModel>
  </diagram>
</mxfile>
